<?xml version="1.0" encoding="UTF-8"?>
<!-- Uploaded to: SVG Find, www.svgrepo.com, Generator: SVG Find Mixer Tools -->
<svg fill="#000000" width="800px" height="800px" version="1.1" viewBox="144 144 512 512" xmlns="http://www.w3.org/2000/svg">
 <path d="m551.98 372.68c-6.2969 6.2969-9.8086 14.328-10.539 22.551-0.91797 10.379 2.5938 21.074 10.539 29.023 4.3516 4.3516 9.5195 7.3672 15.02 9.0625h0.003906c7 2.1562 14.527 2.1562 21.527 0h0.003906c5.4961-1.6953 10.668-4.7109 15.02-9.0625 14.242-14.242 14.242-37.336 0-51.57-7.9453-7.9453-18.641-11.457-29.016-10.539-8.2305 0.72656-16.258 4.2383-22.559 10.535zm-103.07-58.328c10.758-2.2422 20.902-7.5508 29.055-15.695 8.0508-8.0508 13.43-18.148 15.695-29.012l69.363 79.324c-8.1719 2.4297-15.645 6.8633-21.762 12.984-6.1211 6.1211-10.555 13.598-12.984 21.77zm-150.49 62.777 106.48-71.406c-3.0742-2.0742-5.9453-4.4414-8.582-7.0742-12.473-12.469-18.043-29.238-16.715-45.543l-119.01 58.453c22.723 10.559 38.09 33.598 38.09 59.723-0.003906 1.957-0.085938 3.9102-0.26172 5.8477zm-103.51 159.97h119.37l-35.625-118.52c-12.176 11.797-28.52 18.543-45.801 18.543-12.988 0-25.52-3.8047-36.176-10.82zm123.93 15.184h-137.93c-8.918 0-16.207 7.293-16.207 16.211v16.211h184.38v-16.211c0-8.918-7.293-16.211-16.211-16.211zm229.1-111.64c-16.598 10.086-27.688 28.34-27.688 49.184 0 17.207 7.5586 32.645 19.531 43.188v-51.461l18.992-10.965 18.992-10.969 18.992 10.969 18.992 10.965v51.461c11.977-10.539 19.527-25.977 19.527-43.188 0-20.844-11.09-39.098-27.688-49.184-4.4336 3.1445-9.3477 5.5742-14.59 7.1836l-4.6484 1.4336-0.44141-0.14844c-7.1406 1.4258-14.527 1.332-21.637-0.28516l-0.32031 0.050781-3.332-1.0234c-0.03125-0.011719-0.0625-0.019531-0.09375-0.027344l-6.7188-2.0664-0.28516-0.66016c-2.6484-1.2656-5.1836-2.7617-7.5859-4.457zm-264.44-69.359c0 6.3711-1.1758 12.469-3.3203 18.086l-0.003906 0.003906c-1.6641 4.3594-3.9141 8.4297-6.6562 12.113-9.2305 12.41-24.008 20.445-40.66 20.445-14.012 0-26.695-5.6875-35.871-14.887-9.1406-9.1641-14.785-21.801-14.785-35.762 0-27.973 22.676-50.648 50.648-50.648 2.7188 0 5.3828 0.21484 7.9883 0.625h0.003906c24.172 3.832 42.656 24.77 42.656 50.023zm-50.648-23.973c-13.242 0-23.973 10.73-23.973 23.973 0 13.242 10.73 23.973 23.973 23.973 13.242 0 23.973-10.73 23.973-23.973 0-13.238-10.734-23.973-23.973-23.973zm186.1-51c15.785 7.4609 35.219 4.6641 48.277-8.3906 9.4375-9.4375 13.512-22.199 12.234-34.512-0.97656-9.3672-5.0547-18.473-12.234-25.652-16.613-16.613-43.555-16.613-60.168 0-16.613 16.613-16.613 43.555 0 60.168 3.5547 3.5547 7.5898 6.3516 11.891 8.3867zm3.9492-24.234c7.8672 7.8672 20.613 7.8672 28.48 0 7.8672-7.8672 7.8672-20.613 0-28.48-7.8672-7.8672-20.613-7.8672-28.48 0-7.8633 7.8672-7.8633 20.617 0 28.48zm144.11 115.63c5.9453-5.9453 15.582-5.9453 21.523 0 5.9453 5.9453 5.9453 15.582 0 21.527-5.9453 5.9453-15.582 5.9453-21.523 0-5.9414-5.9453-5.9414-15.582 0-21.527z" fill-rule="evenodd"/>
</svg>